<!--
This work is licensed under a Creative Commons Attribution-ShareAlike 4.0 International License.
-->
<svg
xmlns="http://www.w3.org/2000/svg" viewBox="0 0 102.4 102.4">
    <defs>
    <style>.HiGold{fill:#000000;}</style>
    </defs>
    <title>by HiGold Community</title>
    <g id="HiGold" data-name="logo">

        <circle cx="51.25" cy="23.4" r="8.5"/>
        <circle cx="79.0" cy="23.4" r="8.5"/>

        <path d="
            M 29.4 29.4
            A 8.5 8.5 0 1 0 17.4 29.4
            A 25.6 16.0 0 0 1 17.4 45.25
            A 8.5 8.5 0 0 0 17.4 57.25
            A 25.6 16.0 0 0 1 17.4 73.1
            A 8.5 8.5 0 1 0 29.4 73.1
            A 25.6 16.0 0 0 1 29.4 57.25
            A 16.0 25.6 0 0 1 45.25 57.25
            A 25.6 16.0 0 0 1 45.25 73.1
            A 8.5 8.5 0 1 0  57.25 73.1
            A 25.6 16.0 0 0 1 57.25 57.25
            A 8.5 8.5 0 1 0 45.25 45.25
            A 16.0 25.6 0 0 1 29.4 45.25
            A 25.6 16.0 0 0 1 29.4 29.4
            Z
        "/>

        <path d="
            M 85.1 57.25
            A 8.5 8.5 0 1 0 73.1 57.25
            A 25.6 16.0 0 0 1 73.1 73.1
            A 8.5 8.5 0 1 0 85.1 73.1
            A 25.6 16.0 0 0 1 85.1 57.25
            Z
        "/>

    </g>
</svg>
