<svg width="300" height="300" xmlns="http://www.w3.org/2000/svg">
 <defs>
  <style>.HiGold{fill:#000000;}</style>
 </defs>
 <title>by HiGold Community</title>
 <g>
  <title>background</title>
  <rect fill="none" id="canvas_background" height="302" width="302" y="-1" x="-1"/>
 </g>
 <g>
  <title>Layer 1</title>
  <g stroke="null" id="HiGold">
   <circle stroke="null" id="svg_1" r="33.286789" cy="40.247437" cx="150.249994"/>
   <circle stroke="null" id="svg_2" r="33.286793" cy="40.247437" cx="258.921587"/>
   <path stroke="null" id="svg_3" d="m64.683352,63.743998a33.286794,33.286794 0 1 0 -46.993121,0a100.251992,62.657495 0 0 1 0,62.070081a33.286794,33.286794 0 0 0 0,46.993121a100.251992,62.657495 0 0 1 0,62.070081a33.286794,33.286794 0 1 0 46.993121,0a100.251992,62.657495 0 0 1 0,-62.070081a62.657495,100.251992 0 0 1 62.070081,0a100.251992,62.657495 0 0 1 0,62.070081a33.286794,33.286794 0 1 0 46.993121,0a100.251992,62.657495 0 0 1 0,-62.070081a33.286794,33.286794 0 1 0 -46.993121,-46.993121a62.657495,100.251992 0 0 1 -62.070081,0a100.251992,62.657495 0 0 1 0,-62.070081z"/>
   <path stroke="null" id="svg_4" d="m282.809757,172.807201a33.286794,33.286794 0 1 0 -46.993121,0a100.251992,62.657495 0 0 1 0,62.070081a33.286794,33.286794 0 1 0 46.993121,0a100.251992,62.657495 0 0 1 0,-62.070081z"/>
  </g>
 </g>
</svg>
